<svg width="548" height="86" viewBox="0 0 548 86" fill="none" xmlns="http://www.w3.org/2000/svg">
<path d="M140.132 13.6038C150.636 13.6038 159.579 21.2674 161.222 31.6752L168.265 76.2956H153.807L151.474 61.5031H128.801L126.455 76.2956H112L119.043 31.6752C120.685 21.2674 129.629 13.6038 140.132 13.6038ZM149.665 50.0566L146.973 33.0364C146.44 29.6603 143.538 27.1749 140.131 27.1749C136.724 27.1749 133.822 29.6603 133.288 33.0364L130.596 50.0566H149.665Z" fill="#031137"/>
<path d="M178.146 28.9245H191.817V76.2956H178.146V28.9245ZM184.982 22.3208C182.469 22.3208 180.424 21.587 178.847 20.1195C177.269 18.652 176.48 16.8323 176.48 14.6604C176.48 12.4885 177.269 10.6688 178.847 9.20126C180.424 7.73375 182.469 7 184.982 7C187.494 7 189.539 7.7044 191.116 9.11321C192.694 10.522 193.483 12.283 193.483 14.3962C193.483 16.6855 192.694 18.5933 191.116 20.1195C189.539 21.587 187.494 22.3208 184.982 22.3208Z" fill="#031137"/>
<path d="M215.811 35.1761C217.447 32.8868 219.638 31.1551 222.384 29.9811C225.189 28.8071 228.402 28.2201 232.025 28.2201V40.8994C230.506 40.782 229.483 40.7233 228.957 40.7233C225.043 40.7233 221.975 41.8386 219.755 44.0692C217.535 46.2411 216.425 49.5283 216.425 53.9308V76.2956H202.753V28.9245H215.811V35.1761Z" fill="#031137"/>
<path d="M251.722 29.9811H263.817V40.5472H252.073V76.2956H238.401V27.8679C238.401 22.4675 239.979 18.1824 243.134 15.0126C246.347 11.8428 250.846 10.2579 256.63 10.2579C258.675 10.2579 260.603 10.4927 262.415 10.9623C264.284 11.3732 265.832 11.9895 267.059 12.8113L263.466 22.761C261.889 21.6457 260.048 21.0881 257.945 21.0881C253.797 21.0881 251.722 23.3774 251.722 27.956V29.9811Z" fill="#031137"/>
<path d="M284.744 35.1761C286.38 32.8868 288.571 31.1551 291.317 29.9811C294.121 28.8071 297.335 28.2201 300.957 28.2201V40.8994C299.438 40.782 298.416 40.7233 297.89 40.7233C293.975 40.7233 290.908 41.8386 288.688 44.0692C286.467 46.2411 285.357 49.5283 285.357 53.9308V76.2956H271.685V28.9245H284.744V35.1761Z" fill="#031137"/>
<path d="M354.757 28.9245V76.2956H341.699V70.8365C338.31 74.9455 333.402 77 326.975 77C322.535 77 318.503 76.0021 314.881 74.0063C311.317 72.0105 308.512 69.1635 306.467 65.4654C304.423 61.7673 303.4 57.4822 303.4 52.6101C303.4 47.7379 304.423 43.4528 306.467 39.7547C308.512 36.0566 311.317 33.2096 314.881 31.2138C318.503 29.218 322.535 28.2201 326.975 28.2201C332.993 28.2201 337.696 30.1279 341.085 33.9434V28.9245H354.757ZM329.341 65.7296C332.789 65.7296 335.651 64.5556 337.93 62.2076C340.209 59.8008 341.348 56.6017 341.348 52.6101C341.348 48.6184 340.209 45.4486 337.93 43.1006C335.651 40.6939 332.789 39.4906 329.341 39.4906C325.836 39.4906 322.944 40.6939 320.665 43.1006C318.386 45.4486 317.247 48.6184 317.247 52.6101C317.247 56.6017 318.386 59.8008 320.665 62.2076C322.944 64.5556 325.836 65.7296 329.341 65.7296Z" fill="#031137"/>
<path d="M426.045 28.2201C431.947 28.2201 436.621 29.9811 440.068 33.5031C443.573 36.9665 445.326 42.1908 445.326 49.1761V76.2956H431.654V51.2893C431.654 47.5325 430.866 44.7442 429.288 42.9245C427.769 41.0461 425.578 40.1069 422.715 40.1069C419.502 40.1069 416.96 41.1635 415.091 43.2767C413.221 45.3312 412.286 48.413 412.286 52.522V76.2956H398.614V51.2893C398.614 43.8344 395.635 40.1069 389.675 40.1069C386.52 40.1069 384.008 41.1635 382.138 43.2767C380.268 45.3312 379.334 48.413 379.334 52.522V76.2956H365.662V28.9245H378.72V34.3836C380.473 32.3878 382.605 30.8616 385.118 29.805C387.689 28.7484 390.493 28.2201 393.531 28.2201C396.861 28.2201 399.87 28.8952 402.558 30.2453C405.246 31.5367 407.407 33.4444 409.043 35.9686C410.971 33.5031 413.396 31.5954 416.317 30.2453C419.297 28.8952 422.54 28.2201 426.045 28.2201Z" fill="#031137"/>
<path d="M480.092 65.9937C482.546 65.9937 484.707 65.6415 486.577 64.9371C488.505 64.174 490.287 63 491.923 61.4151L499.197 69.3396C494.757 74.4465 488.271 77 479.741 77C474.424 77 469.721 75.9727 465.631 73.9182C461.541 71.805 458.386 68.8994 456.166 65.2013C453.946 61.5031 452.836 57.3061 452.836 52.6101C452.836 47.9727 453.917 43.805 456.078 40.1069C458.299 36.3501 461.308 33.4444 465.105 31.3899C468.961 29.2767 473.285 28.2201 478.076 28.2201C482.575 28.2201 486.665 29.1887 490.346 31.1258C494.026 33.0042 496.948 35.7631 499.109 39.4025C501.33 42.9832 502.44 47.239 502.44 52.1698L467.559 58.9497C468.552 61.2977 470.101 63.0587 472.204 64.2327C474.366 65.4067 476.995 65.9937 480.092 65.9937ZM478.076 38.6101C474.629 38.6101 471.824 39.7254 469.663 41.956C467.501 44.1866 466.361 47.2683 466.245 51.2013L489.206 46.7107C488.564 44.2453 487.249 42.2788 485.262 40.8113C483.276 39.3438 480.88 38.6101 478.076 38.6101Z" fill="#031137"/>
<path d="M525.74 77C521.825 77 517.998 76.5304 514.259 75.5912C510.52 74.5933 507.54 73.3606 505.32 71.8931L509.877 62.0314C511.98 63.3815 514.522 64.4969 517.501 65.3774C520.481 66.1992 523.402 66.6101 526.265 66.6101C532.05 66.6101 534.942 65.1719 534.942 62.2956C534.942 60.9455 534.153 59.9769 532.575 59.3899C530.998 58.8029 528.573 58.304 525.301 57.8931C521.445 57.3061 518.261 56.631 515.749 55.8679C513.236 55.1048 511.045 53.7547 509.176 51.8176C507.364 49.8805 506.459 47.1216 506.459 43.5409C506.459 40.5472 507.306 37.9057 509 35.6164C510.753 33.2683 513.266 31.4486 516.537 30.1572C519.868 28.8658 523.782 28.2201 528.281 28.2201C531.611 28.2201 534.912 28.6017 538.184 29.3648C541.515 30.0692 544.261 31.0671 546.423 32.3585L541.865 42.1321C537.717 39.7841 533.189 38.6101 528.281 38.6101C525.36 38.6101 523.169 39.021 521.708 39.8428C520.247 40.6646 519.517 41.7212 519.517 43.0126C519.517 44.4801 520.306 45.5073 521.883 46.0943C523.461 46.6813 525.973 47.239 529.42 47.7673C533.277 48.413 536.432 49.1174 538.885 49.8805C541.339 50.5849 543.472 51.9057 545.283 53.8428C547.094 55.7799 548 58.4801 548 61.9434C548 64.8784 547.124 67.4906 545.371 69.7799C543.618 72.0692 541.047 73.8595 537.659 75.1509C534.328 76.3836 530.355 77 525.74 77Z" fill="#031137"/>
<path fill-rule="evenodd" clip-rule="evenodd" d="M61.2758 54.0692L60.3638 54.0728H60.3567V54.0655L61.2758 54.0692Z" fill="#031137"/>
<path d="M9.74997 26.0929C13.1061 10.8479 26.5138 0 42 0C57.4862 0 70.8939 10.8479 74.25 26.0929L83.6621 68.8463C85.6002 77.6501 78.9564 86 70.0133 86H60.5765C52.8549 86 46.5954 79.6879 46.5954 71.9016V49.6197C50.1139 51.0931 59.6782 55.0929 60.2742 55.3232C60.9382 55.5755 61.387 55.4073 61.6491 55.2245C61.8537 55.0819 62.1949 54.7419 62.1949 54.0728L62.1876 53.901C62.159 53.5646 62.0585 52.5117 61.9687 51.7C61.861 50.7056 61.3441 50.2851 61.0173 50.0219C60.8019 49.8427 49.1481 40.5416 46.5954 38.5052V24.835C46.5954 20.7146 43.3069 18.9706 42 18.9706C40.6931 18.9706 37.4046 20.7146 37.4046 24.835V38.5052C35.132 40.3186 23.1946 49.8464 22.9361 50.0621L22.9347 50.0632C22.6542 50.2902 22.1389 50.7072 22.0313 51.7C21.9415 52.5117 21.8411 53.561 21.8124 53.901L21.8052 54.0728C21.8052 54.7383 22.1498 55.0819 22.3544 55.2245C22.613 55.411 23.0653 55.5755 23.7258 55.3232C24.3218 55.0929 33.8861 51.0931 37.4046 49.6197V71.9016C37.4046 79.6879 31.145 86 23.4235 86H13.9867C5.0436 86 -1.6002 77.6501 0.337939 68.8463L9.74997 26.0929Z" fill="#031137"/>
</svg>
