<svg width="805" height="460" viewBox="0 0 805 460" fill="none" xmlns="http://www.w3.org/2000/svg">
<rect width="805" height="460" fill="#4FE3C2"/>
<path d="M293.132 200.604C303.636 200.604 312.579 208.267 314.222 218.675L321.265 263.296H306.807L304.474 248.503H281.801L279.455 263.296H265L272.043 218.675C273.685 208.267 282.629 200.604 293.132 200.604ZM302.665 237.057L299.973 220.036C299.44 216.66 296.538 214.175 293.131 214.175C289.724 214.175 286.822 216.66 286.288 220.036L283.596 237.057H302.665Z" fill="#031137"/>
<path d="M331.146 215.925H344.817V263.296H331.146V215.925ZM337.982 209.321C335.469 209.321 333.424 208.587 331.847 207.12C330.269 205.652 329.48 203.832 329.48 201.66C329.48 199.488 330.269 197.669 331.847 196.201C333.424 194.734 335.469 194 337.982 194C340.494 194 342.539 194.704 344.116 196.113C345.694 197.522 346.483 199.283 346.483 201.396C346.483 203.686 345.694 205.593 344.116 207.12C342.539 208.587 340.494 209.321 337.982 209.321Z" fill="#031137"/>
<path d="M368.811 222.176C370.447 219.887 372.638 218.155 375.384 216.981C378.189 215.807 381.402 215.22 385.025 215.22V227.899C383.506 227.782 382.483 227.723 381.957 227.723C378.043 227.723 374.975 228.839 372.755 231.069C370.535 233.241 369.425 236.528 369.425 240.931V263.296H355.753V215.925H368.811V222.176Z" fill="#031137"/>
<path d="M404.722 216.981H416.817V227.547H405.073V263.296H391.401V214.868C391.401 209.468 392.979 205.182 396.134 202.013C399.347 198.843 403.846 197.258 409.63 197.258C411.675 197.258 413.603 197.493 415.415 197.962C417.284 198.373 418.832 198.99 420.059 199.811L416.466 209.761C414.889 208.646 413.048 208.088 410.945 208.088C406.797 208.088 404.722 210.377 404.722 214.956V216.981Z" fill="#031137"/>
<path d="M437.744 222.176C439.38 219.887 441.571 218.155 444.317 216.981C447.121 215.807 450.335 215.22 453.957 215.22V227.899C452.438 227.782 451.416 227.723 450.89 227.723C446.975 227.723 443.908 228.839 441.688 231.069C439.467 233.241 438.357 236.528 438.357 240.931V263.296H424.685V215.925H437.744V222.176Z" fill="#031137"/>
<path d="M507.757 215.925V263.296H494.699V257.836C491.31 261.945 486.402 264 479.975 264C475.535 264 471.503 263.002 467.881 261.006C464.317 259.01 461.512 256.164 459.467 252.465C457.423 248.767 456.4 244.482 456.4 239.61C456.4 234.738 457.423 230.453 459.467 226.755C461.512 223.057 464.317 220.21 467.881 218.214C471.503 216.218 475.535 215.22 479.975 215.22C485.993 215.22 490.696 217.128 494.085 220.943V215.925H507.757ZM482.341 252.73C485.789 252.73 488.651 251.556 490.93 249.208C493.209 246.801 494.348 243.602 494.348 239.61C494.348 235.618 493.209 232.449 490.93 230.101C488.651 227.694 485.789 226.491 482.341 226.491C478.836 226.491 475.944 227.694 473.665 230.101C471.386 232.449 470.247 235.618 470.247 239.61C470.247 243.602 471.386 246.801 473.665 249.208C475.944 251.556 478.836 252.73 482.341 252.73Z" fill="#031137"/>
<path d="M579.045 215.22C584.947 215.22 589.621 216.981 593.068 220.503C596.573 223.966 598.326 229.191 598.326 236.176V263.296H584.654V238.289C584.654 234.532 583.866 231.744 582.288 229.925C580.769 228.046 578.578 227.107 575.715 227.107C572.502 227.107 569.96 228.164 568.091 230.277C566.221 232.331 565.286 235.413 565.286 239.522V263.296H551.614V238.289C551.614 230.834 548.635 227.107 542.675 227.107C539.52 227.107 537.008 228.164 535.138 230.277C533.268 232.331 532.334 235.413 532.334 239.522V263.296H518.662V215.925H531.72V221.384C533.473 219.388 535.605 217.862 538.118 216.805C540.689 215.748 543.493 215.22 546.531 215.22C549.861 215.22 552.87 215.895 555.558 217.245C558.246 218.537 560.407 220.444 562.043 222.969C563.971 220.503 566.396 218.595 569.317 217.245C572.297 215.895 575.54 215.22 579.045 215.22Z" fill="#031137"/>
<path d="M633.092 252.994C635.546 252.994 637.707 252.642 639.577 251.937C641.505 251.174 643.287 250 644.923 248.415L652.197 256.34C647.757 261.447 641.271 264 632.741 264C627.424 264 622.721 262.973 618.631 260.918C614.541 258.805 611.386 255.899 609.166 252.201C606.946 248.503 605.836 244.306 605.836 239.61C605.836 234.973 606.917 230.805 609.078 227.107C611.299 223.35 614.308 220.444 618.105 218.39C621.961 216.277 626.285 215.22 631.076 215.22C635.575 215.22 639.665 216.189 643.346 218.126C647.026 220.004 649.948 222.763 652.109 226.403C654.33 229.983 655.44 234.239 655.44 239.17L620.559 245.95C621.552 248.298 623.101 250.059 625.204 251.233C627.366 252.407 629.995 252.994 633.092 252.994ZM631.076 225.61C627.629 225.61 624.824 226.725 622.663 228.956C620.501 231.187 619.361 234.268 619.245 238.201L642.206 233.711C641.564 231.245 640.249 229.279 638.262 227.811C636.276 226.344 633.88 225.61 631.076 225.61Z" fill="#031137"/>
<path d="M678.74 264C674.825 264 670.998 263.53 667.259 262.591C663.52 261.593 660.54 260.361 658.32 258.893L662.877 249.031C664.98 250.382 667.522 251.497 670.501 252.377C673.481 253.199 676.402 253.61 679.265 253.61C685.05 253.61 687.942 252.172 687.942 249.296C687.942 247.945 687.153 246.977 685.575 246.39C683.998 245.803 681.573 245.304 678.301 244.893C674.445 244.306 671.261 243.631 668.749 242.868C666.236 242.105 664.045 240.755 662.176 238.818C660.364 236.881 659.459 234.122 659.459 230.541C659.459 227.547 660.306 224.906 662 222.616C663.753 220.268 666.266 218.449 669.537 217.157C672.868 215.866 676.782 215.22 681.281 215.22C684.611 215.22 687.912 215.602 691.184 216.365C694.515 217.069 697.261 218.067 699.423 219.358L694.865 229.132C690.717 226.784 686.189 225.61 681.281 225.61C678.36 225.61 676.169 226.021 674.708 226.843C673.247 227.665 672.517 228.721 672.517 230.013C672.517 231.48 673.306 232.507 674.883 233.094C676.461 233.681 678.973 234.239 682.42 234.767C686.277 235.413 689.432 236.117 691.885 236.881C694.339 237.585 696.472 238.906 698.283 240.843C700.094 242.78 701 245.48 701 248.943C701 251.878 700.124 254.491 698.371 256.78C696.618 259.069 694.047 260.86 690.659 262.151C687.328 263.384 683.355 264 678.74 264Z" fill="#031137"/>
<path fill-rule="evenodd" clip-rule="evenodd" d="M214.276 241.069L213.364 241.073H213.357V241.066L214.276 241.069Z" fill="#031137"/>
<path d="M162.75 213.093C166.106 197.848 179.514 187 195 187C210.486 187 223.894 197.848 227.25 213.093L236.662 255.846C238.6 264.65 231.956 273 223.013 273H213.576C205.855 273 199.595 266.688 199.595 258.902V236.62C203.114 238.093 212.678 242.093 213.274 242.323C213.938 242.576 214.387 242.407 214.649 242.225C214.854 242.082 215.195 241.742 215.195 241.073L215.188 240.901C215.159 240.565 215.059 239.512 214.969 238.7C214.861 237.706 214.344 237.285 214.017 237.022C213.802 236.843 202.148 227.542 199.595 225.505V211.835C199.595 207.715 196.307 205.971 195 205.971C193.693 205.971 190.405 207.715 190.405 211.835V225.505C188.132 227.319 176.195 236.846 175.936 237.062L175.935 237.063C175.654 237.29 175.139 237.707 175.031 238.7C174.942 239.512 174.841 240.561 174.812 240.901L174.805 241.073C174.805 241.738 175.15 242.082 175.354 242.225C175.613 242.411 176.065 242.576 176.726 242.323C177.322 242.093 186.886 238.093 190.405 236.62V258.902C190.405 266.688 184.145 273 176.424 273H166.987C158.044 273 151.4 264.65 153.338 255.846L162.75 213.093Z" fill="#031137"/>
</svg>
